<svg xmlns="http://www.w3.org/2000/svg" width="23.282" height="23.282" viewBox="0 0.073 23.282 23.282"><path d="M21.988 16.24c-1.61 0-3.162-.258-4.617-.737a1.298 1.298 0 0 0-1.313.317l-2.846 2.852a19.512 19.512 0 0 1-8.523-8.517l2.845-2.852c.356-.356.46-.867.317-1.313a14.794 14.794 0 0 1-.737-4.624A1.289 1.289 0 0 0 5.82.073H1.293A1.289 1.289 0 0 0 0 1.366c0 12.145 9.843 21.988 21.988 21.988a1.289 1.289 0 0 0 1.294-1.293v-4.527a1.29 1.29 0 0 0-1.294-1.293Zm-1.293-4.526h2.587C23.282 5.285 18.069.073 11.64.073V2.66c4.999 0 9.054 4.055 9.054 9.054Zm-5.174 0h2.587a6.47 6.47 0 0 0-6.467-6.468v2.587c2.14 0 3.88 1.74 3.88 3.88Z" fill="#38b951" fill-rule="evenodd" data-name="Icon metro-phone-in-talk"/></svg>