<svg xmlns="http://www.w3.org/2000/svg" width="22.424" height="22.424" viewBox="0 0.811 22.424 22.424"><path d="M16.026 14.914h-1.013l-.359-.346a8.297 8.297 0 0 0 2.013-5.423A8.333 8.333 0 0 0 8.334.81 8.333 8.333 0 0 0 0 9.145a8.333 8.333 0 0 0 8.334 8.333 8.297 8.297 0 0 0 5.423-2.012l.346.358v1.013l6.41 6.398 1.91-1.91-6.397-6.41Zm-7.692 0a5.762 5.762 0 0 1-5.77-5.77 5.762 5.762 0 0 1 5.77-5.769 5.762 5.762 0 0 1 5.769 5.77 5.762 5.762 0 0 1-5.77 5.77Z" fill="#fff" fill-rule="evenodd" data-name="Icon material-search"/></svg>