<svg xmlns="http://www.w3.org/2000/svg" width="24.3" height="24.3" viewBox="88.397 0.859 24.3 24.3"><path d="M110.093.859H91.001a2.604 2.604 0 0 0-2.604 2.603v19.093a2.604 2.604 0 0 0 2.604 2.603h19.092a2.604 2.604 0 0 0 2.604-2.603V3.462A2.604 2.604 0 0 0 110.093.86Zm-2.652 8.613c.01.152.01.31.01.461 0 4.703-3.579 10.121-10.12 10.121-2.018 0-3.89-.586-5.462-1.594.287.032.564.043.857.043a7.132 7.132 0 0 0 4.415-1.519 3.562 3.562 0 0 1-3.325-2.468c.548.082 1.041.082 1.605-.065a3.558 3.558 0 0 1-2.847-3.493v-.043a3.555 3.555 0 0 0 1.605.45 3.55 3.55 0 0 1-1.584-2.962c0-.661.174-1.269.483-1.795a10.1 10.1 0 0 0 7.333 3.721c-.504-2.414 1.302-4.372 3.472-4.372 1.025 0 1.947.429 2.598 1.123a6.97 6.97 0 0 0 2.256-.857 3.548 3.548 0 0 1-1.562 1.958 7.08 7.08 0 0 0 2.05-.553 7.488 7.488 0 0 1-1.784 1.844Z" fill="#fff" fill-rule="evenodd" data-name="Icon awesome-twitter-square"/></svg>