<svg xmlns="http://www.w3.org/2000/svg" width="25.173" height="25.167" viewBox="43.77 0 25.173 25.167"><path d="M56.359 6.131a6.442 6.442 0 0 0-6.453 6.452 6.442 6.442 0 0 0 6.453 6.453 6.442 6.442 0 0 0 6.452-6.453 6.442 6.442 0 0 0-6.452-6.452Zm0 10.647a4.203 4.203 0 0 1-4.195-4.195 4.199 4.199 0 0 1 4.195-4.194 4.199 4.199 0 0 1 4.195 4.194 4.203 4.203 0 0 1-4.195 4.195Zm8.221-10.91c0 .836-.674 1.504-1.505 1.504a1.505 1.505 0 1 1 1.505-1.505Zm4.274 1.527c-.096-2.017-.556-3.802-2.033-5.274C65.35.65 63.564.19 61.548.088c-2.078-.117-8.306-.117-10.384 0-2.01.096-3.796.556-5.273 2.028-1.477 1.471-1.932 3.257-2.033 5.273-.118 2.078-.118 8.306 0 10.383.096 2.017.556 3.802 2.033 5.274 1.477 1.471 3.257 1.931 5.273 2.033 2.078.117 8.306.117 10.384 0 2.016-.096 3.802-.556 5.273-2.033 1.471-1.472 1.932-3.257 2.033-5.274.118-2.077.118-8.3 0-10.377ZM66.17 20.002a4.247 4.247 0 0 1-2.393 2.392c-1.656.657-5.587.506-7.418.506-1.83 0-5.768.146-7.419-.506a4.247 4.247 0 0 1-2.392-2.392c-.657-1.657-.505-5.588-.505-7.419 0-1.83-.146-5.767.505-7.418a4.247 4.247 0 0 1 2.392-2.392c1.657-.657 5.588-.506 7.419-.506 1.83 0 5.767-.146 7.418.506a4.247 4.247 0 0 1 2.393 2.392c.657 1.657.505 5.588.505 7.418 0 1.831.152 5.768-.505 7.419Z" fill="#fff" fill-rule="evenodd" data-name="Icon awesome-instagram"/></svg>